<svg xmlns="http://www.w3.org/2000/svg" xmlns:xlink="http://www.w3.org/1999/xlink" width="128" height="115" viewBox="0 0 128 115">
    <defs>
        <path id="a" d="M.005.046H39.11v46.511H.005z"/>
    </defs>
    <g fill="none" fill-rule="evenodd">
        <path fill="#210659" d="M54.613 2.926L50.047 7.42v64.105h2.174l3.842-3.842h-2.175V4.811l.725-.725h1.885v-1.16h-1.885zM34.735 18.902v1.232h2.392l1.16 1.16v2.174l-1.377 1.45H4.059l-4.06 4.059v3.334l1.668 1.667H4.06v-1.232H1.667l-.942-.942v-2.392l.942-.942h13.425v69.738l-1.16 1.16h-1.667v.941h2.102l4.35-4.276V28.47h16.018l4.784-4.784v-2.392l-2.392-2.392h-2.392zm29.88 23.702L58.89 48.33V67.9l3.624 3.625h3.769l2.682-2.61 2.61 2.61h2.916l-1.14-1.775h-1.777V46.373l-3.841-3.77h-3.117zM62.515 69.64V46.663l2.827-2.9h1.232l1.16 1.233v22.47l-2.827 2.827h-1.74l-.652-.653zM43.16 42.604l-3.841 3.769v7.248l3.841 3.77v54.8l-1.45 1.45h-1.398l-1.014-.943v-1.667h-1.646v1.667l1.884 1.884h3.407l3.77-3.769V56.448l-3.553-3.551v-8.191l.943-.942h1.667l.942.942v4.059l1.667-1.667v-2.61l-1.884-1.884H43.16zm-14.133 0L23.3 48.33V67.9l3.624 3.625h3.552l5.291-5.291v-8.118l-3.624 3.624v5.943l-2.827 2.9h-1.232l-1.16-1.233v-8.625l9.06-9.06v-5.292l-3.84-3.77h-3.117zm-1.885 3.769l2.61-2.61h1.231l1.16 1.233v8.336l-5.001 5.001v-11.96zM62.73 83.324l-1.115 1.143v8.946l.457.486h.572l1.115-1.143v-9.06l-.372-.372h-.657zm.285 10.947h-1.4l-1.43-1.43V76.457l1.887-1.886h.572v.485h-.572l-.371.372v8.268l.857-.83h1.486l1.144 1.115V92.1l-2.173 2.172zM54.844 84.467v9.06l.257.258h.686l1.115-1.115v-8.86l-.457-.486h-.486l-1.115 1.143zm1.486 9.804h-1.486l-1.429-1.43v-7.716l2.258-2.258h1.229l1.515 1.486v9.432h.657l.161.486h-.818l-1.03-1.03-1.057 1.03zM51.022 94.27h-.943V76.458l1.8-1.772h.658v.372h-.572l-.371.371v17.414h.857zM31.27 94.29h-.866V84.197h-.576l1.355-1.42h.664v2.285l2.192-2.278h.951l.548.663v.836h.779l-1.327 1.356h-.49l-.375-.404v-.952h-.49L31.847 86.1v6.75h.836zM24.674 84.398v9.143l.26.26h.691l1.125-1.126v-8.94l-.461-.491h-.49l-1.125 1.154zm1.5 9.893h-1.5l-1.443-1.443v-7.787l2.279-2.278h1.24l1.529 1.5V93.8h.663v.49h-.663l-1.038-1.038-1.068 1.039zM69.58 83.198l-1.2 1.229v8.86l.371.371h.572l1.2-1.2v-8.774l-.457-.486h-.486zm.115 10.946H68.38l-1.43-1.429v-7.717l2.259-2.257h1.228l1.43 1.4v7.831l-2.172 2.172zM74.553 94.144h-.857V84.141h-.572l1.343-1.315h.657v2.172l2.173-2.172h.943l.543.572v.829h.771L78.24 85.57h-.486l-.371-.4v-.943h-.486l-1.773 1.8v6.688h.83zM81.317 84.341v9.06l.257.257h.686l1.115-1.114v-8.86l-.457-.486h-.486l-1.115 1.143zm1.486 9.803h-1.486l-1.429-1.429v-7.717l2.258-2.257h1.23l1.514 1.486v9.431h.657v.486h-.657l-1.029-1.028-1.058 1.028z"/>
        <path fill="#210659" d="M39.908 94.291h-1.402l-.9-.9v-8.11h-.601l-.325.326v.826h-.326v-.901l.576-.576h.676v-7.358l1.551-1.552h.576v.4h-.476l-.35.326v7.283h.5l.326-.325v-.926h.425v1l-.575.651h-.676v9.085l.425.426h.326l.75-.751v-.5h.401v.675zM89.676 94.291h-1.401l-.901-.9v-8.11h-.6l-.326.326v.826h-.325v-.901l.575-.576h.676v-7.358l1.552-1.552h.575v.4h-.475l-.35.326v7.283h.5l.325-.325v-.926h.426v1l-.576.651h-.676v9.085l.426.426h.325l.75-.751v-.5h.401v.675zM94.45 83.198l-1.2 1.229v8.86l.371.371h.572l1.2-1.2v-8.774l-.457-.486h-.486zm.115 10.946H93.25l-1.43-1.429v-7.717l2.259-2.257h1.229l1.429 1.4v7.831l-2.172 2.172zM99.337 94.144h-.858V84.141h-.571l1.343-1.315h.657v2.172l2.172-2.172h.944l.543.572v.829h.771l-1.314 1.343h-.486l-.372-.4v-.943h-.486l-1.772 1.8v6.688h.83zM108.421 94.26h-1.486l-1.43-1.43v-8.488h-.857l1.43-1.4h.857v10.46l.457.486h.572l1.143-1.143v-8.403h-.943l1.4-1.4h.944v16.49l-1.6 1.63h-.858v-.4h.657l.4-.372v-6.688z"/>
        <path fill="#210659" d="M88.62 54.83a7.426 7.426 0 1 1-.003 14.851 7.426 7.426 0 0 1 .002-14.85zm11.702 5.488l2.149-3.139-.617-1.44-3.754-.612-2.575-2.517-.7-3.739-1.455-.582-3.088 2.222-3.6.041-3.139-2.149-1.44.617-.612 3.754-2.517 2.576-3.74.7-.581 1.455 2.221 3.087.042 3.6-2.149 3.139.617 1.44 5.211 2.036 1.82 4.832 1.453.582L86.956 74l3.599-.041 3.14 2.149 1.44-.616.613-3.755 2.516-2.576 3.739-.699.582-1.454-2.22-3.088-.043-3.601z"/>
        <g transform="translate(88.795 .083)">
            <mask id="b" fill="#fff">
                <use xlink:href="#a"/>
            </mask>
            <path fill="#210659" d="M17.338 35.507a17.495 17.495 0 0 1-1.011-.253L4.884 43.18l-4.88 3.378 2.879-5.187 5.822-10.493a18.017 18.017 0 0 1-4.17-6.218 17.875 17.875 0 0 1-1.167-8.817h-.005v-.001h.005a17.882 17.882 0 0 1 6.727-11.966A17.882 17.882 0 0 1 23.315.177l.001-.006h.001v.006a17.88 17.88 0 0 1 11.965 6.727 17.88 17.88 0 0 1 3.699 13.22h.005v.001h-.006a17.88 17.88 0 0 1-6.726 11.966 17.88 17.88 0 0 1-13.22 3.698l-.001.006a17.666 17.666 0 0 1-1.695-.288zm-.826-3.093c.509.164.969.29 1.413.388.43.094.9.17 1.439.235v.006c4.152.499 8.118-.736 11.174-3.136a15.119 15.119 0 0 0 5.696-10.112h-.006v-.002h.006A15.12 15.12 0 0 0 33.098 8.62a15.119 15.119 0 0 0-10.112-5.695v.005h-.001v-.006c-4.152-.499-8.12.736-11.175 3.136A15.118 15.118 0 0 0 6.115 16.17h.005v.002h-.005a15.112 15.112 0 0 0 1.487 8.553 15.183 15.183 0 0 0 3.746 4.809l.866.736-.55.99-3.474 6.263 7.115-4.928 1.207-.182z" mask="url(#b)"/>
        </g>
        <path fill="#210659" d="M112.262 27.148a2.08 2.08 0 0 1-.58 1.484 1.88 1.88 0 0 1-1.42.613c-.56 0-1.038-.21-1.436-.629a2.104 2.104 0 0 1-.596-1.5c0-.56.193-1.038.58-1.436.387-.398.85-.597 1.388-.597.58 0 1.07.205 1.467.613.398.41.597.893.597 1.452m.258-17.582c0 .99-.247 2.624-.742 4.904-.451 2.107-.774 3.903-.968 5.387-.086.688-.14 1.398-.16 2.13l-.033 1.129-.032.484c-.022.3-.14.451-.355.451-.215 0-.323-.14-.323-.42v-.515c0-.323-.01-.7-.032-1.13a27.516 27.516 0 0 0-.194-2.129c-.172-1.505-.484-3.301-.935-5.387l-.13-.581c-.43-2.043-.645-3.474-.645-4.291 0-2.043.764-3.065 2.291-3.065 1.505 0 2.258 1.011 2.258 3.033M79.266 38.205a3.88 3.88 0 0 0-2.82.989 3.88 3.88 0 0 0-1.297 2.693 3.91 3.91 0 0 0 3.682 4.116 3.878 3.878 0 0 0 2.82-.988 3.879 3.879 0 0 0 1.296-2.693 3.88 3.88 0 0 0-.988-2.821 3.878 3.878 0 0 0-2.693-1.296zm6.47 4.813l1.696-1.346-.093-.886-1.938-.964-.977-1.8.247-2.15-.692-.562-2.052.69-1.964-.583-1.346-1.696-.886.093-.964 1.938-1.801.977-2.15-.247-.561.693.689 2.051-.583 1.964-1.695 1.346.093.886 2.3 1.983.011 2.932 1.049.561 2.052-.69 1.964.583 1.345 1.696.887-.093.964-1.938 1.8-.977 2.15.248.562-.693-.689-2.051.583-1.965z"/>
    </g>
</svg>
